<svg viewBox="0 0 1200 1200" fill="none" xmlns="http://www.w3.org/2000/svg">
<path d="M275 800H288.889C308.833 800 325 816.168 325 836.111V1125C325 1138.81 313.807 1150 300 1150H150C122.386 1150 100 1172.39 100 1200H1046.46C1089.84 1200 1118.38 1150 1075 1150H925C911.193 1150 900 1138.81 900 1125V900H925C1076.88 900 1200 776.878 1200 625V500C1200 417.157 1132.84 350 1050 350C967.157 350 900 417.157 900 500V575C900 596.689 875 582.418 875 560.729V275C875 123.122 751.878 0 600 0C448.122 0 325 123.122 325 275V460.729C325 482.418 300 496.689 300 475V400C300 317.157 232.843 250 150 250C67.1573 250 0 317.157 0 400V525C0 676.878 123.122 800 275 800Z" fill="#AFE9B7"/>
<path fill-rule="evenodd" clip-rule="evenodd" d="M100 1200L100.001 1193.35C100.001 1165.73 122.387 1143.34 150.001 1143.34H300C313.807 1143.34 325 1132.15 325 1118.34V600C325 586.193 313.807 575 300 575L212.499 574.998C191.789 574.998 175 558.209 175 537.499C175 516.789 191.789 500 212.499 500H400C427.614 500 450 522.386 450 550V1118.35C450 1132.15 461.193 1143.35 475 1143.35L624.998 1143.34C652.613 1143.34 674.999 1165.73 674.999 1193.34V1200L100 1200ZM525 887.499V812.502C525 639.912 664.912 500 837.502 500.001C1010.09 500.002 1150 639.913 1150 812.502V887.499C1150 1060.09 1010.09 1200 837.5 1200C664.911 1200 525 1060.09 525 887.499ZM650 812.5V887.5C650 991.053 733.947 1075 837.5 1075C941.053 1075 1025 991.053 1025 887.5V812.5C1025 708.947 941.053 625 837.5 625C733.947 625 650 708.947 650 812.5Z" fill="#2CA03B"/>
</svg>
